<svg height="512" viewBox="0 0 64 64" width="512" xmlns="http://www.w3.org/2000/svg"><g id="Home-2" data-name="Home"><g fill="#57a4ff"><path d="m21 40h8v14h-8z"/><path d="m33 40h10v6h-10z"/><path d="m21 26h22v6h-22z"/><path d="m51 21v33h-4v-30.98l-15-11.05-15 11.05v30.98h-4v-33l19-14z"/><path d="m21 40h8v14h-8z"/><path d="m33 40h10v6h-10z"/><path d="m21 26h22v6h-22z"/><path d="m21 40h8v14h-8z"/><path d="m38 40h5v6h-5z"/><path d="m33 40h5v6h-5z"/><path d="m21 26h22v6h-22z"/></g><g fill="#004fac"><path d="m58 53h-6v-32a1 1 0 0 0 -.407-.8l-19-14a1 1 0 0 0 -1.186 0l-19 14a1 1 0 0 0 -.407.8v32h-10a1 1 0 0 0 0 2h56a1 1 0 0 0 0-2zm-36 0v-12h6v12zm8 0v-13a1 1 0 0 0 -1-1h-8a1 1 0 0 0 -1 1v13h-2v-29.474l14-10.315 14 10.315v29.474zm18 0v-29.979a1 1 0 0 0 -.407-.8l-15-11.052a1 1 0 0 0 -1.186 0l-15 11.052a1 1 0 0 0 -.407.8v29.979h-2v-31.495l18-13.263 18 13.263v31.495z"/><path d="m62 53h-1a1 1 0 0 0 0 2h1a1 1 0 0 0 0-2z"/><path d="m43 39h-10a1 1 0 0 0 -1 1v6a1 1 0 0 0 1 1h10a1 1 0 0 0 1-1v-6a1 1 0 0 0 -1-1zm-9 6v-4h3v4zm8 0h-3v-4h3z"/><path d="m43 25h-22a1 1 0 0 0 -1 1v6a1 1 0 0 0 1 1h22a1 1 0 0 0 1-1v-6a1 1 0 0 0 -1-1zm-1 6h-20v-4h20z"/></g></g></svg>