<svg height="512" viewBox="0 0 64 64" width="512" xmlns="http://www.w3.org/2000/svg"><g id="sand_castle" data-name="sand castle"><path d="m45 16v17a4 4 0 0 1 -4-4h-6v5h-6v-5h-6a4 4 0 0 1 -4 4v-17z" fill="#78b9eb"/><path d="m45 3a3 3 0 0 1 -6 0h-4a3 3 0 0 1 -6 0h-4a3 3 0 0 1 -6 0h-3v13h32v-13zm-21 10h-4v-4h4zm10 0h-4v-4h4zm10 0h-4v-4h4z" fill="#78b9eb"/><path d="m49 29a4 4 0 0 1 -8 0h-6v5h-6v-5h-6a4 4 0 0 1 -8 0h-3v25.15a26.5 26.5 0 0 1 2.48 1.36 7.486 7.486 0 0 0 3.72.87c4.46 0 4.6-2.6 8.8-2.75v-6.145a4.664 4.664 0 0 1 4.83-4.485h.34a4.664 4.664 0 0 1 4.83 4.485v8.515l.01.37c4.19-.16 4.33-2.75 8.79-2.75 3.3 0 4.23 1.42 6.2 2.23v-26.85zm-27 17h-6v-8h6zm26 0h-6v-8h6z" fill="#78b9eb"/><g fill="#006df0"><path d="m26 19h2v2h-2z"/><path d="m23 22h2v2h-2z"/><path d="m26 25h2v2h-2z"/><path d="m36 25h2v2h-2z"/><path d="m36 19h2v2h-2z"/><path d="m39 22h2v2h-2z"/><path d="m20 14h4a1 1 0 0 0 1-1v-4a1 1 0 0 0 -1-1h-4a1 1 0 0 0 -1 1v4a1 1 0 0 0 1 1zm1-4h2v2h-2z"/><path d="m30 14h4a1 1 0 0 0 1-1v-4a1 1 0 0 0 -1-1h-4a1 1 0 0 0 -1 1v4a1 1 0 0 0 1 1zm1-4h2v2h-2z"/><path d="m40 14h4a1 1 0 0 0 1-1v-4a1 1 0 0 0 -1-1h-4a1 1 0 0 0 -1 1v4a1 1 0 0 0 1 1zm1-4h2v2h-2z"/><path d="m22 37h-6a1 1 0 0 0 -1 1v8a1 1 0 0 0 1 1h6a1 1 0 0 0 1-1v-8a1 1 0 0 0 -1-1zm-1 8h-4v-6h4z"/><path d="m48 37h-6a1 1 0 0 0 -1 1v8a1 1 0 0 0 1 1h6a1 1 0 0 0 1-1v-8a1 1 0 0 0 -1-1zm-1 8h-4v-6h4z"/><path d="m29 57h2v2h-2z"/><path d="m11 57h2v2h-2z"/><path d="m5 52h2v2h-2z"/><path d="m4 59h2v2h-2z"/><path d="m54 51h2v2h-2z"/><path d="m44 59h2v2h-2z"/><path d="m25 60h2v2h-2z"/><path d="m52 59h2v2h-2z"/><path d="m58.44 38.96a5.8 5.8 0 0 0 -4.51 2.36 10.048 10.048 0 0 1 -.93.92v-13.24a1 1 0 0 0 -1-1h-3a1 1 0 0 0 -1 1 3.01 3.01 0 0 1 -2 2.82v-14.82h2a1 1 0 0 0 1-1v-13a1 1 0 0 0 -1-1h-3a1 1 0 0 0 -1 1 2 2 0 0 1 -4 0 1 1 0 0 0 -1-1h-4a1 1 0 0 0 -1 1 2 2 0 0 1 -4 0 1 1 0 0 0 -1-1h-4a1 1 0 0 0 -1 1 2 2 0 0 1 -4 0 1 1 0 0 0 -1-1h-3a1 1 0 0 0 -1 1v13a1 1 0 0 0 1 1h2v14.82a3.01 3.01 0 0 1 -2-2.82 1 1 0 0 0 -1-1h-3a1 1 0 0 0 -1 1v10.42a7.462 7.462 0 0 0 -2.4 1.9c-.89.96-1.6 1.72-3.05 1.72s-2.16-.76-3.05-1.72l-.5-.53v2.85a5.045 5.045 0 0 0 3.55 1.4 5.808 5.808 0 0 0 4.52-2.36 10.2 10.2 0 0 1 .93-.93v11.07a9.72 9.72 0 0 0 -2-.2v2a6.75 6.75 0 0 1 4.08 1.24 8.824 8.824 0 0 0 5.12 1.52 8.814 8.814 0 0 0 5.11-1.52 6.783 6.783 0 0 1 4.09-1.24 6.773 6.773 0 0 1 4.08 1.24 9.366 9.366 0 0 0 10.23 0 7.349 7.349 0 0 1 8.17 0 8.824 8.824 0 0 0 5.12 1.52v-2a7.453 7.453 0 0 1 -2-.25v-10.55a7.6 7.6 0 0 0 2.4-1.9c.89-.96 1.59-1.72 3.04-1.72s2.16.76 3.05 1.72l.51.54v-2.86a5.07 5.07 0 0 0 -3.56-1.4zm-41.44-23.96v-11h1.13a4 4 0 0 0 7.74 0h2.26a4 4 0 0 0 7.74 0h2.26a4 4 0 0 0 7.74 0h1.13v11zm12 13h-6a1 1 0 0 0 -1 1 3.01 3.01 0 0 1 -2 2.82v-14.82h24v14.82a3.01 3.01 0 0 1 -2-2.82 1 1 0 0 0 -1-1h-6a1 1 0 0 0 -1 1v4h-4v-4a1 1 0 0 0 -1-1zm7 27.36a6.78 6.78 0 0 1 -3.49-1.22 8.889 8.889 0 0 0 -4.51-1.5v-4.64a4 4 0 0 1 8 0zm15-1.17a.405.405 0 0 1 -.09-.05 9.366 9.366 0 0 0 -10.23 0 7.26 7.26 0 0 1 -2.68 1.13v-7.78h-.03a5.991 5.991 0 0 0 -11.94 0h-.03v5.23a9.037 9.037 0 0 0 -3.72 1.42 6.75 6.75 0 0 1 -4.08 1.24 6.783 6.783 0 0 1 -4.09-1.24c-.34-.21-.71-.42-1.11-.62v-23.52h1.1a5 5 0 0 0 9.8 0h4.1v4a1 1 0 0 0 1 1h6a1 1 0 0 0 1-1v-4h4.1a5 5 0 0 0 9.8 0h1.1z"/></g></g></svg>